# xmcd
#
# Track frame offsets:
#	150
#	13878
#	29901
#	43034
#	59110
#	76850
#	91319
#	105276
#	118685
#	131624
#	146706
#	160749
#	176777
#	193256
#	205343
#	225994
#
# Disc length: 3203 seconds
#
# Revision: 1
# Processed by: cddbd v1.5.2PL0 Copyright (c) Steve Scherf et al.
# Submitted via: audiograbber 1.83.01
#
DISCID=e30c8110
DTITLE=Liu Marks - O Cowboy
DYEAR=2005
DGENRE=Country
TTITLE0=Em Clima de Festa
TTITLE1=Chegando de Viagem
TTITLE2=Olhar 23
TTITLE3=Salva o Nosso Amor
TTITLE4=She Loves Me
TTITLE5=Não Consigo te Tirar do Peito
TTITLE6=Festa de Peão
TTITLE7=Quero ser Feliz
TTITLE8=Paixão Paixão
TTITLE9=O Cowboy
TTITLE10=I Need Your Love In My Heart
TTITLE11=Bye Bye Solidão
TTITLE12=Tempestade de Paixão
TTITLE13=Doce Feito Mel
TTITLE14=She Loves Me (Remix)
TTITLE15=I Need Your Love In My Heart (Remix)
EXTD=Recorded in 2004 At AZ Studio
EXTT0=
EXTT1=
EXTT2=
EXTT3=
EXTT4=Participação especial de Juliano César
EXTT5=
EXTT6=
EXTT7=
EXTT8=
EXTT9=
EXTT10=
EXTT11=
EXTT12=
EXTT13=
EXTT14=Remixed By Edgar Silva e Della Torre
EXTT15=Remixed By Edgar Silva e Della Torre
PLAYORDER=
